<?xml version="1.0"?>
<svg xmlns="http://www.w3.org/2000/svg" width="50" height="50" viewBox="0 0 50 50">
    <path d="M 19.9375 0.40625 C 16.2575 0.47325 13.5685 1.56875 11.9375 3.71875 C 10.0035 6.26775 9.653 10.14375 10.875 15.21875 C 10.424 15.76975 10.08475 16.60675 10.21875 17.71875 C 10.48275 19.91375 11.3595 20.8245 12.0625 21.1875 C 12.4035 22.9215 13.36025 24.86325 14.28125 25.78125 L 14.28125 26.25 C 14.29025 27.266 14.2835 28.14325 14.1875 29.28125 C 13.5755 30.68625 11.5365 31.5135 9.1875 32.4375 C 5.2795 33.9735 0.4275 35.8705 0.0625 41.9375 L 0 43 L 26.28125 43 C 25.23425 42 24.84375 41 24.84375 41 L 2.1875 41 C 2.9435 37.032 6.4995 35.63325 9.9375 34.28125 C 12.6765 33.20425 15.264 32.189 16.125 29.875 L 16.1875 29.625 C 16.3055 28.318 16.29025 27.316 16.28125 26.25 L 16.28125 25.3125 L 16.28125 24.71875 L 15.75 24.4375 C 15.312 24.1405 14.16075 22.1155 13.96875 20.3125 L 13.875 19.5 L 13.03125 19.4375 C 12.90325 19.4275 12.40775 19.07 12.21875 17.5 C 12.12175 16.694 12.498 16.40725 12.5 16.40625 L 13.15625 16 L 12.96875 15.28125 C 11.75575 10.60925 11.93625 7.0385 13.53125 4.9375 C 14.77425 3.2995 16.95075 2.431 19.96875 2.375 C 21.84575 2.375 23.2405 2.87125 23.6875 3.65625 L 23.9375 4.0625 L 24.40625 4.125 C 25.74225 4.311 26.6995 4.888 27.3125 5.875 C 28.8485 8.348 27.9545 12.90975 27.1875 15.21875 L 26.96875 15.96875 L 27.625 16.40625 C 27.629 16.40925 28.00325 16.693 27.90625 17.5 C 27.71725 19.07 27.22175 19.4285 27.09375 19.4375 L 26.25 19.5 L 26.1875 20.3125 C 25.9935 22.1265 24.8385 24.1575 24.4375 24.4375 L 23.90625 24.71875 L 23.90625 26.25 C 23.89725 27.312 23.882 28.322 24 29.625 L 24.0625 29.875 C 24.3095 30.539 24.70025 31.07325 25.15625 31.53125 C 25.44725 31.02325 25.97125 30.1205 26.28125 29.8125 C 26.15125 29.6425 26.04775 29.46325 25.96875 29.28125 C 25.87275 28.14725 25.89725 27.263 25.90625 26.25 L 25.90625 25.78125 C 26.80425 24.86425 27.7255 22.9235 28.0625 21.1875 C 28.7655 20.8235 29.64325 19.91275 29.90625 17.71875 C 30.03725 16.62775 29.71925 15.8 29.28125 15.25 C 29.86125 13.271 31.05 8.1125 29 4.8125 C 28.141 3.4285 26.837 2.55675 25.125 2.21875 C 24.181 1.02575 22.3675 0.40625 19.9375 0.40625 z M 36 26 C 30.488997 26 26 30.488997 26 36 C 26 41.511003 30.488997 46 36 46 C 38.39499 46 40.588106 45.161049 42.3125 43.75 L 48.28125 49.71875 L 49.71875 48.28125 L 43.75 42.3125 C 45.161049 40.588106 46 38.39499 46 36 C 46 30.488997 41.511003 26 36 26 z M 36 28 C 40.430123 28 44 31.569877 44 36 C 44 40.430123 40.430123 44 36 44 C 31.569877 44 28 40.430123 28 36 C 28 31.569877 31.569877 28 36 28 z"/>
</svg>
